<svg xmlns="http://www.w3.org/2000/svg" viewBox="0 0 120 130"><ellipse cx="46" cy="118" rx="9" ry="5" fill="#C47A2C"/><ellipse cx="74" cy="118" rx="9" ry="5" fill="#C47A2C"/><path d="M60 30C90 30 104 54 104 80C104 104 86 118 60 118C34 118 16 104 16 80C16 54 30 30 60 30Z" fill="#58CC02"/><ellipse cx="60" cy="101" rx="26" ry="15" fill="#A5ED6E"/><path d="M60 33C60 26 61 21 62 15" stroke="#3E9A00" stroke-width="4.5" stroke-linecap="round" fill="none"/><path d="M62 18C49 5 33 9 31 18C41 25 53 24 62 18Z" fill="#89E219"/><path d="M62 18C74 3 92 7 94 16C84 25 71 24 62 18Z" fill="#58CC02"/><ellipse cx="45" cy="63" rx="13" ry="15" fill="#fff"/><ellipse cx="75" cy="63" rx="13" ry="15" fill="#fff"/><circle cx="47" cy="65" r="7.5" fill="#3C3C3C"/><circle cx="73" cy="65" r="7.5" fill="#3C3C3C"/><circle cx="49.5" cy="62" r="2.6" fill="#fff"/><circle cx="75.5" cy="62" r="2.6" fill="#fff"/><path d="M50 83q10 9 20 0" stroke="#3C3C3C" stroke-width="4" stroke-linecap="round" fill="none"/></svg>
